<mxfile modified="2021-03-26T08:06:02.836Z" host="app.diagrams.net" agent="5.0 (Windows NT 10.0; Win64; x64) AppleWebKit/537.36 (KHTML, like Gecko) Chrome/89.0.4389.90 Safari/537.36" etag="JlPrdFKiGjSpPvnJ_SUU" version="14.5.1" type="github">
  <diagram id="f106602c-feb2-e66a-4537-3a34d633f6aa" name="Page-1">
    <mxGraphModel dx="1069" dy="537" grid="1" gridSize="10" guides="1" tooltips="1" connect="1" arrows="1" fold="1" page="1" pageScale="1" pageWidth="1169" pageHeight="827" background="#ffffff" math="0" shadow="0">
      <root>
        <mxCell id="0" />
        <mxCell id="1" parent="0" />
        <mxCell id="2" value="Architecture: Equity Market Data Analysis" style="fillColor=#4DA1F5;strokeColor=none;shadow=1;gradientColor=none;fontSize=14;align=left;spacingLeft=50;fontColor=#ffffff;html=1;" parent="1" vertex="1">
          <mxGeometry x="169" y="40" width="831" height="40" as="geometry" />
        </mxCell>
        <mxCell id="6lhIze5l-UB4ZKimi3K4-562" style="edgeStyle=orthogonalEdgeStyle;rounded=0;orthogonalLoop=1;jettySize=auto;html=1;exitX=0.5;exitY=0.84;exitDx=0;exitDy=0;exitPerimeter=0;" edge="1" parent="1" source="6lhIze5l-UB4ZKimi3K4-522" target="6lhIze5l-UB4ZKimi3K4-541">
          <mxGeometry relative="1" as="geometry" />
        </mxCell>
        <mxCell id="6lhIze5l-UB4ZKimi3K4-522" value="EOD Trade Quote" style="html=1;fillColor=#5184F3;strokeColor=none;verticalAlign=top;labelPosition=center;verticalLabelPosition=bottom;align=center;spacingTop=-6;fontSize=11;fontStyle=1;fontColor=#999999;shape=mxgraph.gcp2.hexIcon;prIcon=cloud_sql" vertex="1" parent="1">
          <mxGeometry x="880" y="148.5" width="100" height="100" as="geometry" />
        </mxCell>
        <mxCell id="6lhIze5l-UB4ZKimi3K4-525" value="quote-trade-analytical" style="html=1;fillColor=#5184F3;strokeColor=none;verticalAlign=top;labelPosition=center;verticalLabelPosition=bottom;align=center;spacingTop=-6;fontSize=11;fontStyle=1;fontColor=#999999;shape=mxgraph.gcp2.hexIcon;prIcon=cloud_sql" vertex="1" parent="1">
          <mxGeometry x="880" y="448.5" width="100" height="100" as="geometry" />
        </mxCell>
        <mxCell id="6lhIze5l-UB4ZKimi3K4-528" value="Rejected Files&lt;br&gt;" style="html=1;fillColor=#5184F3;strokeColor=none;verticalAlign=top;labelPosition=center;verticalLabelPosition=bottom;align=center;spacingTop=-6;fontSize=11;fontStyle=1;fontColor=#999999;shape=mxgraph.gcp2.hexIcon;prIcon=cloud_filestore" vertex="1" parent="1">
          <mxGeometry x="420" y="520" width="66" height="58.5" as="geometry" />
        </mxCell>
        <mxCell id="6lhIze5l-UB4ZKimi3K4-565" style="edgeStyle=orthogonalEdgeStyle;rounded=0;orthogonalLoop=1;jettySize=auto;html=1;exitX=0.34;exitY=0.83;exitDx=0;exitDy=0;exitPerimeter=0;entryX=0.175;entryY=0.5;entryDx=0;entryDy=0;entryPerimeter=0;" edge="1" parent="1" source="6lhIze5l-UB4ZKimi3K4-529" target="6lhIze5l-UB4ZKimi3K4-528">
          <mxGeometry relative="1" as="geometry" />
        </mxCell>
        <mxCell id="6lhIze5l-UB4ZKimi3K4-529" value="Rejected JSON&lt;br&gt;" style="html=1;fillColor=#5184F3;strokeColor=none;verticalAlign=top;labelPosition=center;verticalLabelPosition=bottom;align=center;spacingTop=-6;fontSize=11;fontStyle=1;fontColor=#999999;shape=mxgraph.gcp2.hexIcon;prIcon=cloud_filestore" vertex="1" parent="1">
          <mxGeometry x="380" y="390" width="66" height="58.5" as="geometry" />
        </mxCell>
        <mxCell id="6lhIze5l-UB4ZKimi3K4-557" style="edgeStyle=orthogonalEdgeStyle;rounded=0;orthogonalLoop=1;jettySize=auto;html=1;exitX=0.5;exitY=0.84;exitDx=0;exitDy=0;exitPerimeter=0;entryX=0;entryY=0;entryDx=0;entryDy=0;" edge="1" parent="1" source="6lhIze5l-UB4ZKimi3K4-530" target="6lhIze5l-UB4ZKimi3K4-545">
          <mxGeometry relative="1" as="geometry">
            <Array as="points">
              <mxPoint x="493" y="240" />
            </Array>
          </mxGeometry>
        </mxCell>
        <mxCell id="6lhIze5l-UB4ZKimi3K4-530" value="Accepted JSON&lt;br&gt;" style="html=1;fillColor=#5184F3;strokeColor=none;verticalAlign=top;labelPosition=center;verticalLabelPosition=bottom;align=center;spacingTop=-6;fontSize=11;fontStyle=1;fontColor=#999999;shape=mxgraph.gcp2.hexIcon;prIcon=cloud_filestore" vertex="1" parent="1">
          <mxGeometry x="460" y="180" width="66" height="58.5" as="geometry" />
        </mxCell>
        <mxCell id="6lhIze5l-UB4ZKimi3K4-551" style="edgeStyle=orthogonalEdgeStyle;rounded=0;orthogonalLoop=1;jettySize=auto;html=1;exitX=0.825;exitY=0.5;exitDx=0;exitDy=0;exitPerimeter=0;entryX=0;entryY=0.5;entryDx=0;entryDy=0;" edge="1" parent="1" source="6lhIze5l-UB4ZKimi3K4-531" target="6lhIze5l-UB4ZKimi3K4-543">
          <mxGeometry relative="1" as="geometry" />
        </mxCell>
        <mxCell id="6lhIze5l-UB4ZKimi3K4-531" value="source2.json&lt;br&gt;" style="html=1;fillColor=#5184F3;strokeColor=none;verticalAlign=top;labelPosition=center;verticalLabelPosition=bottom;align=center;spacingTop=-6;fontSize=11;fontStyle=1;fontColor=#999999;shape=mxgraph.gcp2.hexIcon;prIcon=cloud_filestore" vertex="1" parent="1">
          <mxGeometry x="40" y="290" width="66" height="58.5" as="geometry" />
        </mxCell>
        <mxCell id="6lhIze5l-UB4ZKimi3K4-550" style="edgeStyle=orthogonalEdgeStyle;rounded=0;orthogonalLoop=1;jettySize=auto;html=1;exitX=0.825;exitY=0.5;exitDx=0;exitDy=0;exitPerimeter=0;entryX=0;entryY=0.5;entryDx=0;entryDy=0;" edge="1" parent="1" source="6lhIze5l-UB4ZKimi3K4-532" target="6lhIze5l-UB4ZKimi3K4-547">
          <mxGeometry relative="1" as="geometry">
            <mxPoint x="170" y="210" as="targetPoint" />
          </mxGeometry>
        </mxCell>
        <mxCell id="6lhIze5l-UB4ZKimi3K4-532" value="source1.csv&lt;br&gt;" style="html=1;fillColor=#5184F3;strokeColor=none;verticalAlign=top;labelPosition=center;verticalLabelPosition=bottom;align=center;spacingTop=-6;fontSize=11;fontStyle=1;fontColor=#999999;shape=mxgraph.gcp2.hexIcon;prIcon=cloud_filestore" vertex="1" parent="1">
          <mxGeometry x="40" y="180" width="66" height="58.5" as="geometry" />
        </mxCell>
        <mxCell id="6lhIze5l-UB4ZKimi3K4-564" style="edgeStyle=orthogonalEdgeStyle;rounded=0;orthogonalLoop=1;jettySize=auto;html=1;exitX=0.34;exitY=0.83;exitDx=0;exitDy=0;exitPerimeter=0;" edge="1" parent="1" source="6lhIze5l-UB4ZKimi3K4-533" target="6lhIze5l-UB4ZKimi3K4-528">
          <mxGeometry relative="1" as="geometry" />
        </mxCell>
        <mxCell id="6lhIze5l-UB4ZKimi3K4-533" value="Rejected CSV&lt;br&gt;" style="html=1;fillColor=#5184F3;strokeColor=none;verticalAlign=top;labelPosition=center;verticalLabelPosition=bottom;align=center;spacingTop=-6;fontSize=11;fontStyle=1;fontColor=#999999;shape=mxgraph.gcp2.hexIcon;prIcon=cloud_filestore" vertex="1" parent="1">
          <mxGeometry x="400" y="90" width="66" height="58.5" as="geometry" />
        </mxCell>
        <mxCell id="6lhIze5l-UB4ZKimi3K4-559" style="edgeStyle=orthogonalEdgeStyle;rounded=0;orthogonalLoop=1;jettySize=auto;html=1;exitX=0.825;exitY=0.5;exitDx=0;exitDy=0;exitPerimeter=0;entryX=0;entryY=1;entryDx=0;entryDy=0;" edge="1" parent="1" source="6lhIze5l-UB4ZKimi3K4-534" target="6lhIze5l-UB4ZKimi3K4-545">
          <mxGeometry relative="1" as="geometry" />
        </mxCell>
        <mxCell id="6lhIze5l-UB4ZKimi3K4-534" value="Accepted CSV" style="html=1;fillColor=#5184F3;strokeColor=none;verticalAlign=top;labelPosition=center;verticalLabelPosition=bottom;align=center;spacingTop=-6;fontSize=11;fontStyle=1;fontColor=#999999;shape=mxgraph.gcp2.hexIcon;prIcon=cloud_filestore" vertex="1" parent="1">
          <mxGeometry x="466" y="291.5" width="66" height="58.5" as="geometry" />
        </mxCell>
        <mxCell id="6lhIze5l-UB4ZKimi3K4-563" style="edgeStyle=orthogonalEdgeStyle;rounded=0;orthogonalLoop=1;jettySize=auto;html=1;exitX=0.5;exitY=1;exitDx=0;exitDy=0;entryX=0.5;entryY=0.16;entryDx=0;entryDy=0;entryPerimeter=0;" edge="1" parent="1" source="6lhIze5l-UB4ZKimi3K4-541" target="6lhIze5l-UB4ZKimi3K4-525">
          <mxGeometry relative="1" as="geometry" />
        </mxCell>
        <mxCell id="6lhIze5l-UB4ZKimi3K4-541" value="" style="strokeColor=#dddddd;shadow=1;strokeWidth=1;rounded=1;absoluteArcSize=1;arcSize=2;" vertex="1" parent="1">
          <mxGeometry x="845" y="320" width="170" height="60" as="geometry" />
        </mxCell>
        <mxCell id="6lhIze5l-UB4ZKimi3K4-542" value="&lt;font color=&quot;#000000&quot;&gt;Analytical ETL&lt;br&gt;&lt;/font&gt;" style="dashed=0;connectable=0;html=1;fillColor=#5184F3;strokeColor=none;shape=mxgraph.gcp2.hexIcon;prIcon=transfer_appliance;part=1;labelPosition=right;verticalLabelPosition=middle;align=left;verticalAlign=middle;spacingLeft=5;fontColor=#999999;fontSize=12;" vertex="1" parent="6lhIze5l-UB4ZKimi3K4-541">
          <mxGeometry y="0.5" width="44" height="39" relative="1" as="geometry">
            <mxPoint x="5" y="-19.5" as="offset" />
          </mxGeometry>
        </mxCell>
        <mxCell id="6lhIze5l-UB4ZKimi3K4-554" style="edgeStyle=orthogonalEdgeStyle;rounded=0;orthogonalLoop=1;jettySize=auto;html=1;exitX=1;exitY=1;exitDx=0;exitDy=0;entryX=0.175;entryY=0.5;entryDx=0;entryDy=0;entryPerimeter=0;" edge="1" parent="1" source="6lhIze5l-UB4ZKimi3K4-543" target="6lhIze5l-UB4ZKimi3K4-529">
          <mxGeometry relative="1" as="geometry">
            <Array as="points">
              <mxPoint x="380" y="419" />
            </Array>
          </mxGeometry>
        </mxCell>
        <mxCell id="6lhIze5l-UB4ZKimi3K4-555" style="edgeStyle=orthogonalEdgeStyle;rounded=0;orthogonalLoop=1;jettySize=auto;html=1;entryX=0.175;entryY=0.5;entryDx=0;entryDy=0;entryPerimeter=0;" edge="1" parent="1" source="6lhIze5l-UB4ZKimi3K4-543" target="6lhIze5l-UB4ZKimi3K4-534">
          <mxGeometry relative="1" as="geometry" />
        </mxCell>
        <mxCell id="6lhIze5l-UB4ZKimi3K4-543" value="" style="strokeColor=#dddddd;shadow=1;strokeWidth=1;rounded=1;absoluteArcSize=1;arcSize=2;" vertex="1" parent="1">
          <mxGeometry x="210" y="290" width="170" height="60" as="geometry" />
        </mxCell>
        <mxCell id="6lhIze5l-UB4ZKimi3K4-544" value="&lt;font color=&quot;#000000&quot;&gt;Ingestion JSON&lt;br&gt;&lt;/font&gt;" style="dashed=0;connectable=0;html=1;fillColor=#5184F3;strokeColor=none;shape=mxgraph.gcp2.hexIcon;prIcon=transfer_appliance;part=1;labelPosition=right;verticalLabelPosition=middle;align=left;verticalAlign=middle;spacingLeft=5;fontColor=#999999;fontSize=12;" vertex="1" parent="6lhIze5l-UB4ZKimi3K4-543">
          <mxGeometry y="0.5" width="44" height="39" relative="1" as="geometry">
            <mxPoint x="5" y="-19.5" as="offset" />
          </mxGeometry>
        </mxCell>
        <mxCell id="6lhIze5l-UB4ZKimi3K4-560" style="edgeStyle=orthogonalEdgeStyle;rounded=0;orthogonalLoop=1;jettySize=auto;html=1;exitX=1;exitY=0;exitDx=0;exitDy=0;" edge="1" parent="1" source="6lhIze5l-UB4ZKimi3K4-545" target="6lhIze5l-UB4ZKimi3K4-522">
          <mxGeometry relative="1" as="geometry" />
        </mxCell>
        <mxCell id="6lhIze5l-UB4ZKimi3K4-545" value="" style="strokeColor=#dddddd;shadow=1;strokeWidth=1;rounded=1;absoluteArcSize=1;arcSize=2;" vertex="1" parent="1">
          <mxGeometry x="550" y="240" width="170" height="60" as="geometry" />
        </mxCell>
        <mxCell id="6lhIze5l-UB4ZKimi3K4-546" value="&lt;font color=&quot;#000000&quot;&gt;EOD Load&lt;/font&gt;" style="dashed=0;connectable=0;html=1;fillColor=#5184F3;strokeColor=none;shape=mxgraph.gcp2.hexIcon;prIcon=transfer_appliance;part=1;labelPosition=right;verticalLabelPosition=middle;align=left;verticalAlign=middle;spacingLeft=5;fontColor=#999999;fontSize=12;" vertex="1" parent="6lhIze5l-UB4ZKimi3K4-545">
          <mxGeometry y="0.5" width="44" height="39" relative="1" as="geometry">
            <mxPoint x="5" y="-19.5" as="offset" />
          </mxGeometry>
        </mxCell>
        <mxCell id="6lhIze5l-UB4ZKimi3K4-553" style="edgeStyle=orthogonalEdgeStyle;rounded=0;orthogonalLoop=1;jettySize=auto;html=1;exitX=1;exitY=0;exitDx=0;exitDy=0;entryX=0.175;entryY=0.5;entryDx=0;entryDy=0;entryPerimeter=0;" edge="1" parent="1" source="6lhIze5l-UB4ZKimi3K4-547" target="6lhIze5l-UB4ZKimi3K4-533">
          <mxGeometry relative="1" as="geometry">
            <Array as="points">
              <mxPoint x="380" y="119" />
            </Array>
          </mxGeometry>
        </mxCell>
        <mxCell id="6lhIze5l-UB4ZKimi3K4-556" style="edgeStyle=orthogonalEdgeStyle;rounded=0;orthogonalLoop=1;jettySize=auto;html=1;exitX=1;exitY=0.5;exitDx=0;exitDy=0;entryX=0.175;entryY=0.5;entryDx=0;entryDy=0;entryPerimeter=0;" edge="1" parent="1" source="6lhIze5l-UB4ZKimi3K4-547" target="6lhIze5l-UB4ZKimi3K4-530">
          <mxGeometry relative="1" as="geometry" />
        </mxCell>
        <mxCell id="6lhIze5l-UB4ZKimi3K4-547" value="" style="strokeColor=#dddddd;shadow=1;strokeWidth=1;rounded=1;absoluteArcSize=1;arcSize=2;" vertex="1" parent="1">
          <mxGeometry x="210" y="180" width="170" height="60" as="geometry" />
        </mxCell>
        <mxCell id="6lhIze5l-UB4ZKimi3K4-548" value="&lt;font color=&quot;#000000&quot;&gt;Ingestion CSV&lt;br&gt;&lt;/font&gt;" style="dashed=0;connectable=0;html=1;fillColor=#5184F3;strokeColor=none;shape=mxgraph.gcp2.hexIcon;prIcon=transfer_appliance;part=1;labelPosition=right;verticalLabelPosition=middle;align=left;verticalAlign=middle;spacingLeft=5;fontColor=#999999;fontSize=12;" vertex="1" parent="6lhIze5l-UB4ZKimi3K4-547">
          <mxGeometry y="0.5" width="44" height="39" relative="1" as="geometry">
            <mxPoint x="5" y="-19.5" as="offset" />
          </mxGeometry>
        </mxCell>
      </root>
    </mxGraphModel>
  </diagram>
</mxfile>
